<?xml version="1.0" encoding="utf-8"?>
<!-- Generator: Adobe Illustrator 24.2.1, SVG Export Plug-In . SVG Version: 6.00 Build 0)  -->
<svg version="1.1" id="Layer_1" xmlns="http://www.w3.org/2000/svg" xmlns:xlink="http://www.w3.org/1999/xlink" x="0px" y="0px"
	 viewBox="0 0 377.5 386" style="enable-background:new 0 0 377.5 386;" xml:space="preserve">
<style type="text/css">
	.st0{fill:#FFFFFF;}
	.st1{enable-background:new    ;}
	.st2{fill:#4C4C4C;}
	.st3{fill:none;stroke:#4C4C4C;stroke-miterlimit:10;}
	.st4{display:none;}
	.st5{display:inline;}
	.st6{font-family:'MrEavesModOT-Book';}
	.st7{font-size:22.0259px;}
	.st8{font-size:18px;}
</style>
<rect class="st0" width="377.5" height="386"/>
<g>
	<g class="st1">
		<path class="st2" d="M179.4,57.7h-1.3l5.5-13.2h1l5.5,13.2h-1.3l-1.6-3.8H181L179.4,57.7z M184,46.3l-2.6,6.5h5.3L184,46.3z"/>
		<path class="st2" d="M195.9,58c-1.1,0-2.4-0.5-3-1.5V62h-1.1V50.2h1l0.1,1.4c0.6-1.2,1.9-1.7,3-1.7c2.1,0,3.7,1.7,3.7,4
			C199.6,56.3,198,58,195.9,58z M195.7,50.9c-1.5,0-2.8,1.1-2.8,3.1s1.3,3.1,2.8,3.1s2.8-1.1,2.8-3.1
			C198.5,52,197.2,50.9,195.7,50.9z"/>
		<path class="st2" d="M206.1,58c-1.1,0-2.4-0.5-3-1.5V62H202V50.2h1l0.1,1.4c0.6-1.2,1.9-1.7,3-1.7c2.1,0,3.7,1.7,3.7,4
			C209.8,56.3,208.2,58,206.1,58z M205.9,50.9c-1.5,0-2.8,1.1-2.8,3.1s1.3,3.1,2.8,3.1s2.8-1.1,2.8-3.1S207.4,50.9,205.9,50.9z"/>
	</g>
	<g class="st1">
		<path class="st2" d="M178.1,81.3c-1.8-1.6-3.3-4-3.3-7.3s1.5-5.7,3.3-7.3l0.3,0.3c-1,1.1-2.7,3.5-2.7,7s1.7,5.9,2.7,7L178.1,81.3z
			"/>
		<path class="st2" d="M181.7,79.6c-1.1,0-2-0.5-2.2-0.6l0.2-0.8c0.5,0.3,1.2,0.6,2.1,0.6c0.8,0,1.4-0.3,1.4-1.1
			c0-0.6-0.5-0.8-1.6-1.1c-1.3-0.3-1.9-1-1.9-1.8c0-1,0.7-1.8,2.2-1.8c0.8,0,1.6,0.4,1.8,0.5l-0.2,0.7c-0.5-0.3-1.1-0.5-1.6-0.5
			c-0.9,0-1.3,0.4-1.3,0.9c0,0.6,0.5,0.8,1.3,1.1c1.4,0.3,2.1,1,2.1,1.8C184,78.8,183.1,79.6,181.7,79.6z"/>
		<path class="st2" d="M187.6,73.9v5.4h-0.9v-5.4h-1.4v-0.7h1.4v-2.1h0.9v2.1h1.4v0.7H187.6z"/>
		<path class="st2" d="M195.9,79.3l-0.1-1.1c-0.5,0.9-1.6,1.4-2.5,1.4c-1.7,0-3.1-1.4-3.1-3.3s1.3-3.3,3.1-3.3c0.9,0,2,0.4,2.5,1.4
			l0.1-1.1h0.8v6.1L195.9,79.3L195.9,79.3z M191.2,76.3c0,1.6,1.1,2.5,2.3,2.5s2.3-0.9,2.3-2.5s-1.1-2.5-2.3-2.5
			C192.2,73.7,191.2,74.7,191.2,76.3z"/>
		<path class="st2" d="M200.6,73.9v5.4h-0.9v-5.4h-1.4v-0.7h1.4v-2.1h0.9v2.1h1.4v0.7H200.6z"/>
		<path class="st2" d="M208.8,76h-4.5c-0.1,1.3,0.5,2.8,2.5,2.8c0.7,0,1.5-0.3,2-0.8v0.8c-0.5,0.5-1.3,0.8-2.4,0.8
			c-1.8,0-3.1-1.4-3.1-3.3c0-2,1.4-3.2,3-3.2c1.5,0,2.6,1,2.6,2.4C208.8,75.6,208.8,75.8,208.8,76z M206.3,73.7
			c-0.9,0-1.7,0.5-2,1.6h3.7C208,74.4,207.4,73.7,206.3,73.7z"/>
		<path class="st2" d="M212.9,74c0-3.5-1.7-5.9-2.7-7l0.3-0.3c1.8,1.6,3.3,4,3.3,7.3s-1.5,5.7-3.3,7.3l-0.3-0.3
			C211.2,80,212.9,77.5,212.9,74z"/>
	</g>
	<rect x="121.6" y="29" class="st3" width="134.3" height="69"/>
</g>
<g>
	<g class="st1">
		<path class="st2" d="M261.5,321.3h-1.3l5.5-13.2h1l5.5,13.2h-1.3l-1.6-3.8h-6.2L261.5,321.3z M266.2,309.9l-2.6,6.5h5.3
			L266.2,309.9z"/>
		<path class="st2" d="M275.1,316.9v4.5H274v-7.5h1l0.1,1.4c0.6-0.9,1.7-1.7,2.9-1.7v1.2C276.6,314.5,275.1,315.5,275.1,316.9z"/>
		<path class="st2" d="M282.2,314.7v6.6h-1.1v-6.6h-1.7v-0.9h1.7v-2.5h1.1v2.5h1.7v0.9H282.2z"/>
		<path class="st2" d="M285.9,311.3V310h1.1v1.3H285.9z M285.9,321.3v-7.5h1.1v7.5H285.9z"/>
		<path class="st2" d="M293.3,321.6c-2.2,0-3.9-1.7-3.9-4c0-2.4,1.7-4,3.9-4c0.9,0,1.7,0.2,2.6,0.8v1c-0.7-0.6-1.6-0.8-2.4-0.8
			c-1.7,0-2.9,1.2-2.9,3.1c0,1.8,1.2,3.1,2.9,3.1c0.8,0,1.7-0.3,2.4-0.8v1C295.1,321.4,294.3,321.6,293.3,321.6z"/>
		<path class="st2" d="M298.2,321.3v-13.2h1.1v13.2H298.2z"/>
		<path class="st2" d="M308.4,317.3h-5.5c-0.1,1.6,0.6,3.4,3.1,3.4c0.9,0,1.8-0.4,2.4-0.9v0.9c-0.6,0.6-1.6,0.9-2.9,0.9
			c-2.2,0-3.8-1.8-3.8-4.1c0-2.4,1.8-4,3.6-4c1.8,0,3.2,1.2,3.2,2.9C308.5,316.7,308.4,317,308.4,317.3z M305.3,314.4
			c-1.1,0-2.1,0.6-2.4,2h4.5C307.5,315.3,306.7,314.4,305.3,314.4z"/>
	</g>
	<g class="st1">
		<path class="st2" d="M266.1,344.9c-1.8-1.6-3.3-4-3.3-7.3s1.5-5.7,3.3-7.3l0.3,0.3c-1,1.1-2.7,3.5-2.7,7s1.7,5.9,2.7,7
			L266.1,344.9z"/>
		<path class="st2" d="M271.3,343.2c-0.9,0-1.9-0.4-2.4-1.2v4.5H268v-9.7h0.8l0.1,1.1c0.5-1,1.6-1.4,2.5-1.4c1.7,0,3.1,1.4,3.1,3.3
			C274.3,341.7,273,343.2,271.3,343.2z M271.1,337.3c-1.2,0-2.3,0.9-2.3,2.5s1.1,2.5,2.3,2.5c1.2,0,2.3-0.9,2.3-2.5
			S272.4,337.3,271.1,337.3z"/>
		<path class="st2" d="M277.2,339.3v3.7h-0.9v-6.1h0.8l0.1,1.1c0.5-0.7,1.4-1.4,2.4-1.4v1C278.4,337.4,277.2,338.2,277.2,339.3z"/>
		<path class="st2" d="M283.9,343.2c-1.9,0-3.3-1.5-3.3-3.3s1.4-3.3,3.3-3.3s3.3,1.5,3.3,3.3S285.8,343.2,283.9,343.2z M283.9,337.3
			c-1.4,0-2.4,1-2.4,2.5s1,2.5,2.4,2.5s2.4-1.1,2.4-2.5C286.3,338.4,285.3,337.3,283.9,337.3z"/>
		<path class="st2" d="M292.4,343.2c-0.9,0-1.9-0.4-2.4-1.2v4.5h-0.9v-9.7h0.8l0.1,1.1c0.5-1,1.6-1.4,2.5-1.4c1.7,0,3.1,1.4,3.1,3.3
			C295.5,341.7,294.2,343.2,292.4,343.2z M292.3,337.3c-1.2,0-2.3,0.9-2.3,2.5s1.1,2.5,2.3,2.5c1.2,0,2.3-0.9,2.3-2.5
			S293.5,337.3,292.3,337.3z"/>
		<path class="st2" d="M299.2,343.2c-1.1,0-2-0.5-2.2-0.6l0.2-0.8c0.5,0.3,1.2,0.6,2.1,0.6c0.8,0,1.4-0.3,1.4-1.1
			c0-0.6-0.5-0.8-1.6-1.1c-1.3-0.3-1.9-1-1.9-1.8c0-1,0.7-1.8,2.2-1.8c0.8,0,1.6,0.4,1.8,0.5l-0.2,0.7c-0.4-0.3-1.1-0.5-1.6-0.5
			c-0.9,0-1.3,0.4-1.3,0.9c0,0.6,0.5,0.8,1.3,1.1c1.4,0.3,2.1,1,2.1,1.8C301.5,342.4,300.5,343.2,299.2,343.2z"/>
		<path class="st2" d="M305.4,337.6c0-3.5-1.7-5.9-2.7-7l0.3-0.3c1.8,1.6,3.3,4,3.3,7.3s-1.5,5.7-3.3,7.3l-0.3-0.3
			C303.7,343.6,305.4,341.1,305.4,337.6z"/>
	</g>
	<rect x="215.4" y="292.6" class="st3" width="134.3" height="69"/>
</g>
<g class="st1">
	<path class="st2" d="M71.2,188.5v5.7h7.9v-5.7h1.2v13.2h-1.2v-6.4h-7.9v6.4H70v-13.2H71.2z"/>
	<path class="st2" d="M89.5,197.7H84c-0.1,1.6,0.6,3.4,3.1,3.4c0.9,0,1.8-0.4,2.4-0.9v0.9c-0.6,0.6-1.6,0.9-2.9,0.9
		c-2.2,0-3.8-1.8-3.8-4.1c0-2.4,1.8-4,3.6-4c1.8,0,3.2,1.2,3.2,2.9C89.6,197.1,89.5,197.4,89.5,197.7z M86.4,194.9
		c-1.1,0-2.1,0.6-2.4,2h4.5C88.6,195.7,87.7,194.9,86.4,194.9z"/>
	<path class="st2" d="M98.4,201.7l-0.1-1.4c-0.6,1.1-1.9,1.7-3,1.7c-2.1,0-3.7-1.7-3.7-4.1c0-2.3,1.6-4,3.7-4c1.1,0,2.4,0.5,3,1.7
		l0.1-1.4h1v7.5H98.4z M92.7,198c0,2,1.3,3.1,2.8,3.1s2.8-1.1,2.8-3.1s-1.3-3.1-2.8-3.1C94,194.9,92.7,196,92.7,198z"/>
	<path class="st2" d="M108.6,201.7l-0.1-1.4c-0.6,1.1-1.9,1.7-3,1.7c-2.1,0-3.7-1.7-3.7-4.1c0-2.3,1.6-4,3.7-4c1.1,0,2.4,0.5,3,1.5
		v-6.9h1.1v13.2H108.6z M102.9,198c0,2,1.3,3.1,2.8,3.1s2.8-1.1,2.8-3.1s-1.3-3.1-2.8-3.1S102.9,196,102.9,198z"/>
	<path class="st2" d="M118.7,197.7h-5.6c-0.1,1.6,0.6,3.4,3.1,3.4c0.9,0,1.8-0.4,2.4-0.9v0.9c-0.6,0.6-1.6,0.9-2.9,0.9
		c-2.2,0-3.8-1.8-3.8-4.1c0-2.4,1.8-4,3.6-4s3.2,1.2,3.2,2.9C118.8,197.1,118.7,197.4,118.7,197.7z M115.6,194.9
		c-1.1,0-2.1,0.6-2.4,2h4.5C117.8,195.7,117,194.9,115.6,194.9z"/>
	<path class="st2" d="M122.4,197.3v4.5h-1.1v-7.5h1l0.1,1.4c0.6-0.9,1.7-1.7,2.9-1.7v1.2C123.8,195,122.4,196,122.4,197.3z"/>
</g>
<g class="st1">
	<path class="st2" d="M78.6,225.3c-1.8-1.6-3.3-4-3.3-7.3s1.5-5.7,3.3-7.3l0.3,0.3c-1,1.1-2.7,3.5-2.7,7s1.7,5.9,2.7,7L78.6,225.3z"
		/>
	<path class="st2" d="M83.8,223.6c-0.9,0-1.9-0.4-2.4-1.2v4.5h-0.9v-9.7h0.8l0.1,1.1c0.5-1,1.6-1.4,2.5-1.4c1.7,0,3.1,1.4,3.1,3.3
		C86.9,222.2,85.5,223.6,83.8,223.6z M83.6,217.7c-1.2,0-2.3,0.9-2.3,2.5s1.1,2.5,2.3,2.5c1.2,0,2.3-0.9,2.3-2.5
		S84.9,217.7,83.6,217.7z"/>
	<path class="st2" d="M89.7,219.7v3.7h-0.9v-6.1h0.8l0.1,1.1c0.5-0.7,1.4-1.4,2.4-1.4v1C90.9,217.8,89.7,218.6,89.7,219.7z"/>
	<path class="st2" d="M96.4,223.6c-1.9,0-3.3-1.5-3.3-3.3s1.4-3.3,3.3-3.3c1.9,0,3.3,1.5,3.3,3.3S98.3,223.6,96.4,223.6z
		 M96.4,217.7c-1.4,0-2.4,1-2.4,2.5s1,2.5,2.4,2.5s2.4-1.1,2.4-2.5S97.8,217.7,96.4,217.7z"/>
	<path class="st2" d="M104.9,223.6c-0.9,0-1.9-0.4-2.4-1.2v4.5h-0.9v-9.7h0.8l0.1,1.1c0.5-1,1.6-1.4,2.5-1.4c1.7,0,3.1,1.4,3.1,3.3
		C108,222.2,106.7,223.6,104.9,223.6z M104.8,217.7c-1.2,0-2.3,0.9-2.3,2.5s1.1,2.5,2.3,2.5s2.3-0.9,2.3-2.5S106,217.7,104.8,217.7z
		"/>
	<path class="st2" d="M111.7,223.6c-1.1,0-2-0.5-2.2-0.6l0.2-0.8c0.5,0.3,1.2,0.6,2.1,0.6c0.8,0,1.4-0.3,1.4-1.1
		c0-0.6-0.5-0.8-1.6-1.1c-1.3-0.3-1.9-1-1.9-1.8c0-1,0.7-1.8,2.2-1.8c0.8,0,1.6,0.4,1.8,0.5l-0.2,0.7c-0.4-0.3-1.1-0.5-1.6-0.5
		c-0.9,0-1.3,0.4-1.3,0.9c0,0.6,0.5,0.8,1.3,1.1c1.4,0.3,2.1,1,2.1,1.8C114,222.8,113,223.6,111.7,223.6z"/>
	<path class="st2" d="M117.9,218c0-3.5-1.7-5.9-2.7-7l0.3-0.3c1.8,1.6,3.3,4,3.3,7.3s-1.5,5.7-3.3,7.3l-0.3-0.3
		C116.2,224,117.9,221.5,117.9,218z"/>
</g>
<g>
	<g>
		<g class="st1">
			<path class="st2" d="M252.9,188.5l8,10.8v-10.8h1.1v13.2h-0.8l-8-10.8v10.8h-1.1v-13.2H252.9z"/>
			<path class="st2" d="M271.3,197.7h-5.5c-0.1,1.6,0.6,3.4,3.1,3.4c0.9,0,1.8-0.4,2.4-0.9v0.9c-0.6,0.6-1.6,0.9-2.9,0.9
				c-2.2,0-3.8-1.8-3.8-4.1c0-2.4,1.8-4,3.6-4c1.8,0,3.2,1.2,3.2,2.9C271.3,197.1,271.3,197.4,271.3,197.7z M268.2,194.9
				c-1.1,0-2.1,0.6-2.4,2h4.5C270.4,195.7,269.5,194.9,268.2,194.9z"/>
			<path class="st2" d="M281.6,201.8h-0.8l-2.2-5.9l-2.2,5.9h-0.8l-2.9-7.6h1.1l2.2,5.9l2.2-5.9h0.8l2.2,5.9l2.2-5.9h1.1
				L281.6,201.8z"/>
			<path class="st2" d="M288.4,202c-1.3,0-2.4-0.6-2.7-0.8l0.2-0.9c0.6,0.3,1.5,0.7,2.5,0.7s1.7-0.4,1.7-1.3c0-0.7-0.6-1-1.9-1.4
				c-1.5-0.4-2.3-1.3-2.3-2.2c0-1.2,0.9-2.2,2.6-2.2c1,0,2,0.5,2.2,0.6l-0.2,0.9c-0.6-0.3-1.3-0.6-2-0.6c-1.1,0-1.6,0.5-1.6,1.1
				c0,0.7,0.6,1,1.6,1.3c1.7,0.4,2.6,1.2,2.6,2.2C291.2,201.1,290.1,202,288.4,202z"/>
			<path class="st2" d="M294.9,188.5v12.1h6.3v1.1h-7.5v-13.2L294.9,188.5L294.9,188.5z"/>
			<path class="st2" d="M302.9,191.7v-1.3h1.1v1.3H302.9z M302.9,201.7v-7.5h1.1v7.5H302.9z"/>
			<path class="st2" d="M308.9,202c-1.3,0-2.4-0.6-2.7-0.8l0.2-0.9c0.6,0.3,1.5,0.7,2.5,0.7s1.7-0.4,1.7-1.3c0-0.7-0.6-1-1.9-1.4
				c-1.5-0.4-2.3-1.3-2.3-2.2c0-1.2,0.9-2.2,2.6-2.2c1,0,2,0.5,2.2,0.6l-0.2,0.9c-0.6-0.3-1.3-0.6-2-0.6c-1.1,0-1.6,0.5-1.6,1.1
				c0,0.7,0.6,1,1.6,1.3c1.7,0.4,2.6,1.2,2.6,2.2C311.8,201.1,310.6,202,308.9,202z"/>
			<path class="st2" d="M316.1,195.1v6.6H315v-6.6h-1.7v-0.9h1.7v-2.5h1.1v2.5h1.7v0.9H316.1z"/>
		</g>
		<g class="st1">
			<path class="st2" d="M266,225.3c-1.8-1.6-3.3-4-3.3-7.3s1.5-5.7,3.3-7.3l0.3,0.3c-1,1.1-2.7,3.5-2.7,7s1.7,5.9,2.7,7L266,225.3z"
				/>
			<path class="st2" d="M271.3,223.6c-0.9,0-1.9-0.4-2.4-1.2v4.5H268v-9.7h0.8l0.1,1.1c0.5-1,1.6-1.4,2.5-1.4c1.7,0,3.1,1.4,3.1,3.3
				C274.3,222.2,273,223.6,271.3,223.6z M271.1,217.7c-1.2,0-2.3,0.9-2.3,2.5s1.1,2.5,2.3,2.5c1.2,0,2.3-0.9,2.3-2.5
				S272.3,217.7,271.1,217.7z"/>
			<path class="st2" d="M277.2,219.7v3.7h-0.9v-6.1h0.8l0.1,1.1c0.5-0.7,1.4-1.4,2.4-1.4v1C278.4,217.8,277.2,218.6,277.2,219.7z"/>
			<path class="st2" d="M283.9,223.6c-1.9,0-3.3-1.5-3.3-3.3s1.4-3.3,3.3-3.3s3.3,1.5,3.3,3.3S285.8,223.6,283.9,223.6z
				 M283.9,217.7c-1.4,0-2.4,1-2.4,2.5s1,2.5,2.4,2.5s2.4-1.1,2.4-2.5C286.3,218.8,285.3,217.7,283.9,217.7z"/>
			<path class="st2" d="M292.4,223.6c-0.9,0-1.9-0.4-2.4-1.2v4.5h-0.9v-9.7h0.8l0.1,1.1c0.5-1,1.6-1.4,2.5-1.4
				c1.7,0,3.1,1.4,3.1,3.3C295.5,222.2,294.2,223.6,292.4,223.6z M292.3,217.7c-1.2,0-2.3,0.9-2.3,2.5s1.1,2.5,2.3,2.5
				c1.2,0,2.3-0.9,2.3-2.5S293.5,217.7,292.3,217.7z"/>
			<path class="st2" d="M299.1,223.6c-1.1,0-2-0.5-2.2-0.6l0.2-0.8c0.5,0.3,1.2,0.6,2.1,0.6c0.8,0,1.4-0.3,1.4-1.1
				c0-0.6-0.5-0.8-1.6-1.1c-1.3-0.3-1.9-1-1.9-1.8c0-1,0.7-1.8,2.2-1.8c0.8,0,1.6,0.4,1.8,0.5l-0.2,0.7c-0.4-0.3-1.1-0.5-1.6-0.5
				c-0.9,0-1.3,0.4-1.3,0.9c0,0.6,0.5,0.8,1.3,1.1c1.4,0.3,2.1,1,2.1,1.8C301.5,222.8,300.5,223.6,299.1,223.6z"/>
			<path class="st2" d="M305.4,218c0-3.5-1.7-5.9-2.7-7l0.3-0.3c1.8,1.6,3.3,4,3.3,7.3s-1.5,5.7-3.3,7.3l-0.3-0.3
				C303.7,224,305.4,221.5,305.4,218z"/>
		</g>
		<rect x="215.4" y="173" class="st3" width="134.3" height="69"/>
	</g>
	<rect x="27.9" y="173" class="st3" width="134.3" height="69"/>
</g>
<line class="st3" x1="282.8" y1="122.4" x2="282.4" y2="150.5"/>
<line class="st3" x1="188.9" y1="98" x2="188.6" y2="122.1"/>
<line class="st3" x1="95.1" y1="121.5" x2="94.8" y2="150.5"/>
<line class="st3" x1="282.8" y1="122.4" x2="94.8" y2="122.1"/>
<polygon class="st2" points="95,158.7 92.7,154.6 90.3,150.5 95,150.5 99.8,150.5 97.4,154.6 "/>
<line class="st3" x1="282.8" y1="242" x2="282.4" y2="271"/>
<polygon class="st2" points="282.6,278.7 280.2,274.6 277.9,270.5 282.6,270.5 287.3,270.5 285,274.6 "/>
<polygon class="st2" points="282.6,158.7 280.2,154.6 277.9,150.5 282.6,150.5 287.3,150.5 285,154.6 "/>
<g id="Layer_2_1_">
</g>
<g id="Layer_2_2_" class="st4">
	<g class="st5">
		<text transform="matrix(1 0 0 1 177.6722 57.7485)" class="st2 st6 st7">App</text>
		<text transform="matrix(1 0 0 1 173.3522 79.3485)" class="st2 st6 st8">(state)</text>
		<rect x="121.6" y="29" class="st3" width="134.3" height="69"/>
	</g>
</g>
</svg>
