<?xml version="1.0" encoding="utf-8"?>
<!-- Generator: Adobe Illustrator 24.2.1, SVG Export Plug-In . SVG Version: 6.00 Build 0)  -->
<svg version="1.1" xmlns="http://www.w3.org/2000/svg" xmlns:xlink="http://www.w3.org/1999/xlink" x="0px" y="0px"
	 viewBox="0 0 700 929" style="enable-background:new 0 0 700 929;" xml:space="preserve">
<style type="text/css">
	.st0{fill:#666666;}
	.st1{fill:#FFFFFF;}
	.st2{fill:#4C4C4C;}
	.st3{fill:#3F3F3F;}
	.st4{fill:none;stroke:#4C4C4C;stroke-miterlimit:10;}
	.st5{fill:none;}
	.st6{font-family:'MrEavesModOT-Reg';}
	.st7{font-size:16px;}
	.st8{font-size:27.9645px;}
</style>
<g id="Layer_1">
	<g>
		<g>
			<path class="st0" d="M658,93v805H42V93H658 M659,92H41v807h618V92L659,92z"/>
		</g>
	</g>
	<g>
		<rect x="41" y="92" class="st0" width="618" height="65"/>
	</g>
	<g>
		<path class="st1" d="M79.73,130.11c0,3.07-1.59,5.28-4.81,5.28c-3.85,0-4.78-2.86-4.78-5.28v-8.01c0-3.09,1.56-5.28,4.78-5.28
			c3.87,0,4.81,2.83,4.81,5.28v0.78H77v-0.78c0-0.75-0.03-2.6-2.08-2.6s-2.08,1.85-2.08,2.6v8.01c0,0.75,0.03,2.6,2.08,2.6
			s2.08-1.85,2.08-2.6v-0.81h2.73V130.11z"/>
		<path class="st1" d="M88.67,135.05l-0.52-3.51h-3.59l-0.52,3.51h-2.73l2.81-17.89h4.47l2.81,17.89H88.67z M84.98,128.99h2.76
			l-1.38-9.2L84.98,128.99z"/>
		<path class="st1" d="M100.19,127.14l2.39,7.9h-2.91l-2.16-7.23c-0.7-0.03-1.27,0-1.79,0v7.23h-2.73v-17.89h4.39
			c3.67,0,5.2,2.55,5.2,5.12C102.58,124.6,101.72,126.29,100.19,127.14z M97.22,125.14c2.5,0,2.65-1.98,2.65-2.81
			c0-0.75-0.34-2.55-2.5-2.55h-1.66v5.36H97.22z"/>
		<path class="st1" d="M109.24,117.16c3.67,0,5.2,2.6,5.2,5.04c0,3.61-2.03,5.75-5.04,5.75h-1.85v7.1h-2.7v-17.89H109.24z
			 M107.55,125.14h1.53c2.57,0,2.63-2.11,2.63-2.86c0-0.62-0.29-2.5-2.47-2.5h-1.69V125.14z"/>
		<path class="st1" d="M115.89,135.05v-17.89h9.59v2.7h-6.73v4.89h5.93v2.7h-5.93v4.86h6.73v2.73H115.89z"/>
		<path class="st1" d="M138.77,117.16h4.39c3.67,0,5.2,2.37,5.2,5.04v7.83c0,2.6-1.53,5.1-5.2,5.02h-4.39V117.16z M141.42,132.42
			h1.79c2.18,0,2.47-1.74,2.47-2.47v-7.67c0-0.75-0.29-2.5-2.47-2.5h-1.79V132.42z"/>
		<path class="st1" d="M159.8,132.42v2.63h-9.59v-2.63h3.38v-12.64h-3.28v-2.63h9.44v2.63h-3.28v12.64H159.8z"/>
		<path class="st1" d="M161.65,135.05v-17.89h9.59v2.7h-6.73v4.89h5.93v2.7h-5.93v4.86h6.73v2.73H161.65z"/>
		<path class="st1" d="M182.66,117.16v17.89h-2.7v-10.82l-2.08,5.38l-2.08-5.38v10.82h-2.73v-17.89h2.73l2.08,5.43l2.08-5.43H182.66
			z"/>
		<path class="st1" d="M195.97,117.16h4.39c3.67,0,5.2,2.37,5.2,5.04v7.83c0,2.6-1.53,5.1-5.2,5.02h-4.39V117.16z M198.62,132.42
			h1.79c2.18,0,2.47-1.74,2.47-2.47v-7.67c0-0.75-0.29-2.5-2.47-2.5h-1.79V132.42z"/>
		<path class="st1" d="M214.5,135.05l-0.52-3.51h-3.59l-0.52,3.51h-2.73l2.81-17.89h4.47l2.81,17.89H214.5z M210.81,128.99h2.76
			l-1.38-9.2L210.81,128.99z"/>
		<path class="st1" d="M221.45,130.11c0,0.86,0.16,2.63,2.16,2.63c1.95,0,2.16-1.85,2.16-2.47c0-0.73-0.29-2.13-2.24-2.96
			c-3.09-1.38-4.71-2.16-4.71-5.46c0-3.12,1.53-5.02,4.78-5.02c3.87,0,4.81,2.83,4.81,5.28v0.62h-2.65v-0.62
			c0-0.78-0.21-2.65-2.16-2.65c-2.29,0-2.16,2.03-2.16,2.57c0,0.86,0.47,1.82,2.42,2.57c2.29,0.91,4.55,2.03,4.55,5.67
			c0,3.07-1.59,5.12-4.81,5.12c-3.85,0-4.78-2.86-4.78-5.28v-1.61h2.63V130.11z"/>
		<path class="st1" d="M239.93,117.16v17.89h-2.89v-7.7h-3.93v7.7h-2.89v-17.89h2.89v7.49h3.93v-7.49H239.93z"/>
		<path class="st1" d="M251.29,130.03c0,2.63-1.53,5.02-5.2,5.02h-4.39v-17.89h4.08c3.64,0,4.94,2.37,4.94,4.78
			c0,1.74-0.47,2.96-1.43,3.67C250.54,126.42,251.29,127.74,251.29,130.03z M244.25,119.71v5.04h1.46c2.37,0,2.39-1.98,2.39-2.63
			c0-0.65-0.03-2.42-2.39-2.42H244.25z M245.94,127.25h-1.69v5.25h1.85c2.18,0,2.47-1.77,2.47-2.52
			C248.56,129.25,248.51,127.25,245.94,127.25z"/>
		<path class="st1" d="M262.73,122.1v8.01c0,3.07-1.59,5.28-4.81,5.28c-3.25,0-4.78-2.21-4.78-5.28v-8.01
			c0-3.09,1.56-5.28,4.78-5.28S262.73,119.08,262.73,122.1z M260,122.1c0-0.75-0.03-2.6-2.08-2.6c-2.03,0-2.08,1.85-2.08,2.6v8.01
			c0,0.75,0.05,2.6,2.08,2.6c2.05,0,2.08-1.85,2.08-2.6V122.1z"/>
		<path class="st1" d="M271.7,135.05l-0.52-3.51h-3.59l-0.52,3.51h-2.73l2.81-17.89h4.47l2.81,17.89H271.7z M268.01,128.99h2.76
			l-1.38-9.2L268.01,128.99z"/>
		<path class="st1" d="M283.22,127.14l2.39,7.9h-2.91l-2.16-7.23c-0.7-0.03-1.27,0-1.79,0v7.23h-2.73v-17.89h4.39
			c3.67,0,5.2,2.55,5.2,5.12C285.61,124.6,284.75,126.29,283.22,127.14z M280.25,125.14c2.5,0,2.65-1.98,2.65-2.81
			c0-0.75-0.34-2.55-2.5-2.55h-1.66v5.36H280.25z"/>
		<path class="st1" d="M287.48,117.16h4.39c3.67,0,5.2,2.37,5.2,5.04v7.83c0,2.6-1.53,5.1-5.2,5.02h-4.39V117.16z M290.13,132.42
			h1.79c2.18,0,2.47-1.74,2.47-2.47v-7.67c0-0.75-0.29-2.5-2.47-2.5h-1.79V132.42z"/>
	</g>
	<g>
		<path class="st1" d="M542.68,117.29v-1.13h8.69v0.71c-1.17,1.77-4.69,8.58-5.47,13.08h-1.4c1.01-4.46,4.39-11.18,5.38-12.67
			H542.68z"/>
		<path class="st1" d="M557.54,130.31c-2.67,0-4.85-1.66-4.85-4.02c0-2.12,1.38-3.5,3.24-3.98c-1.54-0.48-2.44-1.68-2.44-3.17
			c0-1.93,1.91-3.31,4.05-3.31c2.12,0,4.02,1.38,4.02,3.31c0,1.49-0.85,2.69-2.39,3.17c1.84,0.48,3.22,1.86,3.22,3.98
			C562.39,128.65,560.21,130.31,557.54,130.31z M557.54,122.92c-1.93,0-3.56,1.22-3.56,3.17c0,1.84,1.61,3.13,3.56,3.13
			c1.93,0,3.56-1.29,3.56-3.13C561.1,124.14,559.45,122.92,557.54,122.92z M557.54,116.85c-1.52,0-2.78,0.94-2.78,2.46
			c0,1.38,1.29,2.51,2.78,2.51c1.47,0,2.76-1.13,2.76-2.51C560.3,117.8,559.03,116.85,557.54,116.85z"/>
		<path class="st1" d="M571.27,119.34c0,1.91-1.56,3.45-3.45,3.45c-1.88,0-3.45-1.54-3.45-3.45c0-1.89,1.56-3.45,3.45-3.45
			C569.7,115.89,571.27,117.45,571.27,119.34z M565.22,119.34c0,1.45,1.15,2.62,2.6,2.62c1.43,0,2.62-1.17,2.62-2.62
			c0-1.43-1.2-2.62-2.62-2.62C566.37,116.72,565.22,117.91,565.22,119.34z"/>
	</g>
	<g>
		<g>
			<path class="st1" d="M614.66,113.96c-1.59,0-3.09,0.4-4.4,1.1c-1.49-3.61-5.04-6.15-9.18-6.15c-5.49,0-9.93,4.45-9.93,9.93
				c0,0.41,0.03,0.81,0.07,1.2c-0.49-0.12-1-0.18-1.52-0.18c-3.53,0-6.39,2.86-6.39,6.39c0,3.51,2.83,6.36,6.34,6.39v0h25.02
				c5.16,0,9.34-4.18,9.34-9.34C624,118.14,619.82,113.96,614.66,113.96z"/>
		</g>
		<path class="st1" d="M592.69,139.17l0-0.01c0-0.14-0.03-0.27-0.07-0.39l-0.63-3.36c0-0.32-0.26-0.57-0.57-0.57
			c-0.32,0-0.57,0.26-0.57,0.57l-0.67,3.32c-0.05,0.13-0.08,0.28-0.09,0.43l0,0.01h0c0,0.01,0,0.02,0,0.03
			c0,0.72,0.58,1.31,1.31,1.31s1.31-0.58,1.31-1.31C592.69,139.19,592.69,139.18,592.69,139.17L592.69,139.17z"/>
		<path class="st1" d="M598.66,145.75l0-0.01c0-0.14-0.03-0.27-0.07-0.39l-0.63-3.36c0-0.32-0.26-0.57-0.57-0.57
			c-0.32,0-0.57,0.26-0.57,0.57l-0.67,3.32c-0.05,0.13-0.08,0.28-0.09,0.43l0,0.01h0c0,0.01,0,0.02,0,0.03
			c0,0.72,0.58,1.31,1.31,1.31s1.31-0.58,1.31-1.31C598.66,145.77,598.66,145.76,598.66,145.75L598.66,145.75z"/>
		<path class="st1" d="M604.63,139.17l0-0.01c0-0.14-0.03-0.27-0.07-0.39l-0.63-3.36c0-0.32-0.26-0.57-0.57-0.57
			s-0.57,0.26-0.57,0.57l-0.67,3.32c-0.05,0.13-0.08,0.28-0.09,0.43l0,0.01h0c0,0.01,0,0.02,0,0.03c0,0.72,0.58,1.31,1.31,1.31
			s1.31-0.58,1.31-1.31C604.63,139.19,604.63,139.18,604.63,139.17L604.63,139.17z"/>
		<path class="st1" d="M610.6,145.75l0-0.01c0-0.14-0.03-0.27-0.07-0.39L609.9,142c0-0.32-0.26-0.57-0.57-0.57s-0.57,0.26-0.57,0.57
			l-0.67,3.32c-0.05,0.13-0.08,0.28-0.09,0.43l0,0.01h0c0,0.01,0,0.02,0,0.03c0,0.72,0.58,1.31,1.31,1.31s1.31-0.58,1.31-1.31
			C610.6,145.77,610.6,145.76,610.6,145.75L610.6,145.75z"/>
		<path class="st1" d="M616.57,139.17l0-0.01c0-0.14-0.03-0.27-0.07-0.39l-0.63-3.36c0-0.32-0.26-0.57-0.57-0.57
			s-0.57,0.26-0.57,0.57l-0.67,3.32c-0.05,0.13-0.08,0.28-0.09,0.43l0,0.01h0c0,0.01,0,0.02,0,0.03c0,0.72,0.58,1.31,1.31,1.31
			c0.72,0,1.31-0.58,1.31-1.31C616.57,139.19,616.57,139.18,616.57,139.17L616.57,139.17z"/>
		<g>
			<path class="st0" d="M597.22,127.41c-1.14,0-2.69-0.58-2.69-3.36c0-2.53,1.08-4.16,3.14-4.16c0.75,0,1.41,0.26,1.69,0.47v1.08
				c-0.43-0.27-1.01-0.5-1.56-0.5c-1.05,0-1.84,0.6-1.88,2.45c0.26-0.41,0.92-0.79,1.66-0.79c1.29,0,2.21,0.95,2.21,2.38
				C599.79,126.4,598.67,127.41,597.22,127.41z M595.93,124.89c0,1.01,0.58,1.55,1.23,1.55c0.77,0,1.24-0.59,1.24-1.42
				c0-0.82-0.4-1.43-1.2-1.43C596.61,123.59,595.93,124.04,595.93,124.89z"/>
			<path class="st0" d="M603.74,127.41c-1.65,0-2.91-1.41-2.91-3.78c0-2.36,1.27-3.77,2.91-3.77c1.66,0,2.91,1.41,2.91,3.77
				C606.65,126,605.4,127.41,603.74,127.41z M603.74,120.97c-0.92,0-1.48,0.91-1.48,2.66c0,1.76,0.57,2.68,1.48,2.68
				c0.92,0,1.48-0.91,1.48-2.68C605.22,121.88,604.66,120.97,603.74,120.97z"/>
			<path class="st0" d="M609.33,123.47c-0.96,0-1.65-0.77-1.65-1.78c0-1,0.69-1.76,1.65-1.76c0.97,0,1.66,0.77,1.66,1.76
				C610.99,122.7,610.3,123.47,609.33,123.47z M609.33,120.66c-0.4,0-0.7,0.3-0.7,1.03c0,0.75,0.3,1.04,0.7,1.04
				c0.4,0,0.71-0.3,0.71-1.04C610.04,120.96,609.73,120.66,609.33,120.66z M609.19,127.42l-0.46-0.24l4.54-7.29l0.47,0.24
				L609.19,127.42z M613.13,127.35c-0.96,0-1.65-0.77-1.65-1.78c0-1,0.69-1.76,1.65-1.76c0.97,0,1.66,0.77,1.66,1.76
				C614.79,126.58,614.1,127.35,613.13,127.35z M613.13,124.55c-0.4,0-0.7,0.3-0.7,1.03c0,0.75,0.3,1.04,0.7,1.04
				c0.4,0,0.71-0.3,0.71-1.04C613.84,124.84,613.53,124.55,613.13,124.55z"/>
		</g>
	</g>
	<g>
		<path class="st2" d="M190.41,193.5l0.28,0.44c-0.76,0.39-1.08,1.33-1.08,2.28h0.67v1.52h-1.52v-1.38
			C188.75,194.97,189.33,193.85,190.41,193.5z M193.58,193.5l0.28,0.44c-0.76,0.39-1.08,1.33-1.08,2.28h0.67v1.52h-1.52v-1.38
			C191.92,194.97,192.5,193.85,193.58,193.5z"/>
		<path class="st2" d="M204.53,193.57v1.13h-6.55v4.85h5.4v1.13h-5.4v6.69h-1.26v-13.8H204.53z"/>
		<path class="st2" d="M206.55,199.53v4.53c0,1.89,0.78,2.55,2.09,2.55c1.36,0,2.76-1.31,2.76-2.69v-4.39h1.17v7.84h-1.03
			l-0.07-1.47c-0.55,0.99-1.84,1.77-3.15,1.77c-2,0-2.94-1.29-2.94-3.47v-4.67H206.55z"/>
		<path class="st2" d="M216.69,202.7v4.67h-1.17v-7.84h1.03l0.07,1.43c0.57-0.9,1.82-1.72,3.06-1.72v1.29
			C218.24,200.29,216.69,201.32,216.69,202.7z"/>
		<path class="st2" d="M229.99,207.67c-1.13,0-2.46-0.51-3.08-1.56v5.75h-1.17v-12.33h1.01l0.07,1.43c0.62-1.22,2.02-1.72,3.17-1.72
			c2.23,0,3.91,1.77,3.91,4.21C233.9,205.85,232.22,207.67,229.99,207.67z M229.78,200.22c-1.54,0-2.94,1.13-2.94,3.22
			c0,2.07,1.4,3.24,2.94,3.24c1.56,0,2.94-1.2,2.94-3.24S231.34,200.22,229.78,200.22z"/>
		<path class="st2" d="M236.38,196.86v-1.4h1.17v1.4H236.38z M236.38,207.37v-7.84h1.17v7.84H236.38z"/>
		<path class="st2" d="M240.5,207.37v-13.8h1.17v13.8H240.5z"/>
		<path class="st2" d="M244.62,207.37v-13.8h1.17v13.8H244.62z"/>
		<path class="st2" d="M252.43,207.69c-2.46,0-4.25-1.93-4.25-4.25s1.79-4.23,4.25-4.23c2.48,0,4.25,1.91,4.25,4.23
			S254.92,207.69,252.43,207.69z M252.43,200.22c-1.75,0-3.08,1.31-3.08,3.22c0,1.89,1.33,3.24,3.08,3.24
			c1.77,0,3.08-1.36,3.08-3.24C255.52,201.53,254.21,200.22,252.43,200.22z"/>
		<path class="st2" d="M267.18,207.44h-0.87l-2.28-6.12l-2.32,6.12h-0.87l-3.01-7.91h1.17l2.32,6.21l2.28-6.21h0.87l2.35,6.21
			l2.25-6.21h1.13L267.18,207.44z"/>
		<path class="st2" d="M274.31,207.67c-1.4,0-2.51-0.62-2.81-0.8l0.23-0.97c0.6,0.34,1.54,0.78,2.62,0.78c1.06,0,1.79-0.41,1.79-1.4
			c0-0.74-0.6-1.08-2-1.45c-1.61-0.41-2.37-1.31-2.37-2.32c0-1.24,0.9-2.28,2.76-2.28c1.08,0,2.05,0.48,2.32,0.62l-0.23,0.94
			c-0.57-0.32-1.38-0.6-2.09-0.6c-1.17,0-1.66,0.48-1.66,1.2c0,0.74,0.58,1.08,1.7,1.38c1.75,0.41,2.69,1.26,2.69,2.35
			C277.27,206.7,276.08,207.67,274.31,207.67z"/>
		<path class="st2" d="M290.36,207.37l-0.07-1.43c-0.62,1.2-2.02,1.72-3.17,1.72c-2.23,0-3.91-1.79-3.91-4.23s1.68-4.21,3.91-4.21
			c1.13,0,2.55,0.51,3.17,1.72l0.07-1.43h1.01v7.84H290.36z M284.38,203.44c0,2.05,1.36,3.24,2.94,3.24c1.54,0,2.94-1.17,2.94-3.24
			c0-2.09-1.4-3.22-2.94-3.22C285.74,200.22,284.38,201.39,284.38,203.44z"/>
		<path class="st2" d="M295.49,202.7v4.67h-1.17v-7.84h1.03l0.07,1.43c0.57-0.9,1.82-1.72,3.06-1.72v1.29
			C297.03,200.29,295.49,201.32,295.49,202.7z"/>
		<path class="st2" d="M306.85,203.11h-5.79c-0.14,1.63,0.62,3.54,3.22,3.54c0.94,0,1.86-0.41,2.55-0.97v0.97
			c-0.64,0.6-1.7,0.99-3.04,0.99c-2.3,0-3.93-1.84-3.93-4.28c0-2.55,1.84-4.14,3.77-4.14c1.91,0,3.31,1.29,3.31,3.06
			C306.94,202.54,306.9,202.84,306.85,203.11z M303.66,200.17c-1.15,0-2.23,0.67-2.53,2.09h4.67
			C305.91,201.07,305.06,200.17,303.66,200.17z"/>
		<path class="st2" d="M319.52,207.37v-4.53c0-1.89-0.78-2.55-2.09-2.55c-1.36,0-2.76,1.31-2.76,2.69v4.39h-1.17v-13.8h1.17v7.38
			c0.55-0.97,1.77-1.72,3.08-1.72c2,0,2.94,1.29,2.94,3.47v4.67H319.52z"/>
		<path class="st2" d="M330.31,207.37l-0.07-1.43c-0.62,1.2-2.02,1.72-3.17,1.72c-2.23,0-3.91-1.79-3.91-4.23s1.68-4.21,3.91-4.21
			c1.13,0,2.55,0.51,3.17,1.72l0.07-1.43h1.01v7.84H330.31z M324.33,203.44c0,2.05,1.36,3.24,2.94,3.24c1.54,0,2.94-1.17,2.94-3.24
			c0-2.09-1.4-3.22-2.94-3.22C325.69,200.22,324.33,201.39,324.33,203.44z"/>
		<path class="st2" d="M335.44,202.7v4.67h-1.17v-7.84h1.03l0.07,1.43c0.57-0.9,1.82-1.72,3.06-1.72v1.29
			C336.98,200.29,335.44,201.32,335.44,202.7z"/>
		<path class="st2" d="M346.96,207.37l-0.07-1.43c-0.62,1.2-2.02,1.72-3.17,1.72c-2.23,0-3.91-1.79-3.91-4.23s1.68-4.21,3.91-4.21
			c1.13,0,2.46,0.51,3.08,1.56v-7.22h1.17v13.8H346.96z M340.98,203.44c0,2.05,1.36,3.24,2.94,3.24c1.54,0,2.94-1.17,2.94-3.24
			c0-2.09-1.4-3.22-2.94-3.22C342.34,200.22,340.98,201.39,340.98,203.44z"/>
		<path class="st2" d="M357.01,200.45v6.92h-1.17v-6.92h-1.72v-0.92h1.72v-2.64h1.17v2.64h1.72v0.92H357.01z"/>
		<path class="st2" d="M364.6,207.69c-2.46,0-4.25-1.93-4.25-4.25s1.79-4.23,4.25-4.23c2.48,0,4.25,1.91,4.25,4.23
			S367.09,207.69,364.6,207.69z M364.6,200.22c-1.75,0-3.08,1.31-3.08,3.22c0,1.89,1.33,3.24,3.08,3.24c1.77,0,3.08-1.36,3.08-3.24
			C367.69,201.53,366.37,200.22,364.6,200.22z"/>
		<path class="st2" d="M381.92,207.37l-0.07-1.43c-0.62,1.2-2.02,1.72-3.17,1.72c-2.23,0-3.91-1.79-3.91-4.23s1.68-4.21,3.91-4.21
			c1.13,0,2.55,0.51,3.17,1.72l0.07-1.43h1.01v7.84H381.92z M375.94,203.44c0,2.05,1.36,3.24,2.94,3.24c1.54,0,2.94-1.17,2.94-3.24
			c0-2.09-1.4-3.22-2.94-3.22C377.3,200.22,375.94,201.39,375.94,203.44z"/>
		<path class="st2" d="M389.51,207.64c-2.35,0-4.09-1.75-4.09-4.21s1.75-4.19,4.09-4.19c0.99,0,1.82,0.21,2.67,0.8v1.06
			c-0.76-0.6-1.7-0.87-2.55-0.87c-1.77,0-3.04,1.29-3.04,3.2s1.26,3.22,3.04,3.22c0.85,0,1.79-0.28,2.55-0.87v1.08
			C391.35,207.44,390.5,207.64,389.51,207.64z"/>
		<path class="st2" d="M396.71,200.45v6.92h-1.17v-6.92h-1.72v-0.92h1.72v-2.64h1.17v2.64h1.72v0.92H396.71z"/>
		<path class="st2" d="M401.75,199.53v4.53c0,1.89,0.78,2.55,2.09,2.55c1.36,0,2.76-1.31,2.76-2.69v-4.39h1.17v7.84h-1.03
			l-0.07-1.47c-0.55,0.99-1.84,1.77-3.15,1.77c-2,0-2.94-1.29-2.94-3.47v-4.67H401.75z"/>
		<path class="st2" d="M417.41,207.37l-0.07-1.43c-0.62,1.2-2.02,1.72-3.17,1.72c-2.23,0-3.91-1.79-3.91-4.23s1.68-4.21,3.91-4.21
			c1.13,0,2.55,0.51,3.17,1.72l0.07-1.43h1.01v7.84H417.41z M411.43,203.44c0,2.05,1.36,3.24,2.94,3.24c1.54,0,2.94-1.17,2.94-3.24
			c0-2.09-1.4-3.22-2.94-3.22C412.79,200.22,411.43,201.39,411.43,203.44z"/>
		<path class="st2" d="M421.37,207.37v-13.8h1.17v13.8H421.37z"/>
		<path class="st2" d="M425.48,207.37v-13.8h1.17v13.8H425.48z"/>
		<path class="st2" d="M430.98,211.85h-1.17l1.93-4.58l-3.27-7.75h1.22l2.67,6.55l2.64-6.55h1.17L430.98,211.85z"/>
		<path class="st2" d="M444.18,207.67c-1.4,0-2.51-0.62-2.81-0.8l0.23-0.97c0.6,0.34,1.54,0.78,2.62,0.78c1.06,0,1.79-0.41,1.79-1.4
			c0-0.74-0.6-1.08-2-1.45c-1.61-0.41-2.37-1.31-2.37-2.32c0-1.24,0.9-2.28,2.76-2.28c1.08,0,2.05,0.48,2.32,0.62l-0.23,0.94
			c-0.57-0.32-1.38-0.6-2.09-0.6c-1.17,0-1.66,0.48-1.66,1.2c0,0.74,0.58,1.08,1.7,1.38c1.75,0.41,2.69,1.26,2.69,2.35
			C447.15,206.7,445.95,207.67,444.18,207.67z"/>
		<path class="st2" d="M449.56,207.37v-13.8h1.17v13.8H449.56z"/>
		<path class="st2" d="M460.21,203.11h-5.79c-0.14,1.63,0.62,3.54,3.22,3.54c0.94,0,1.86-0.41,2.55-0.97v0.97
			c-0.64,0.6-1.7,0.99-3.04,0.99c-2.3,0-3.93-1.84-3.93-4.28c0-2.55,1.84-4.14,3.77-4.14c1.91,0,3.31,1.29,3.31,3.06
			C460.3,202.54,460.26,202.84,460.21,203.11z M457.02,200.17c-1.15,0-2.23,0.67-2.53,2.09h4.67
			C459.27,201.07,458.42,200.17,457.02,200.17z"/>
		<path class="st2" d="M469.41,203.11h-5.79c-0.14,1.63,0.62,3.54,3.22,3.54c0.94,0,1.86-0.41,2.55-0.97v0.97
			c-0.64,0.6-1.7,0.99-3.04,0.99c-2.3,0-3.93-1.84-3.93-4.28c0-2.55,1.84-4.14,3.77-4.14c1.91,0,3.31,1.29,3.31,3.06
			C469.5,202.54,469.46,202.84,469.41,203.11z M466.21,200.17c-1.15,0-2.23,0.67-2.53,2.09h4.67
			C468.47,201.07,467.62,200.17,466.21,200.17z"/>
		<path class="st2" d="M476.33,207.67c-1.13,0-2.46-0.51-3.08-1.56v5.75h-1.17v-12.33h1.01l0.07,1.43c0.62-1.22,2.02-1.72,3.17-1.72
			c2.23,0,3.91,1.77,3.91,4.21C480.24,205.85,478.56,207.67,476.33,207.67z M476.13,200.22c-1.54,0-2.94,1.13-2.94,3.22
			c0,2.07,1.4,3.24,2.94,3.24c1.56,0,2.94-1.2,2.94-3.24S477.69,200.22,476.13,200.22z"/>
		<path class="st2" d="M490.41,207.69c-2.46,0-4.25-1.93-4.25-4.25s1.79-4.23,4.25-4.23c2.48,0,4.25,1.91,4.25,4.23
			S492.89,207.69,490.41,207.69z M490.41,200.22c-1.75,0-3.08,1.31-3.08,3.22c0,1.89,1.33,3.24,3.08,3.24
			c1.77,0,3.08-1.36,3.08-3.24C493.49,201.53,492.18,200.22,490.41,200.22z"/>
		<path class="st2" d="M503.08,207.37v-4.53c0-1.89-0.78-2.55-2.09-2.55c-1.36,0-2.76,1.31-2.76,2.69v4.39h-1.17v-7.84h1.03
			l0.07,1.47c0.55-0.99,1.84-1.77,3.15-1.77c2,0,2.94,1.29,2.94,3.47v4.67H503.08z"/>
		<path class="st2" d="M506.42,197.8l-0.28-0.44c0.76-0.39,1.08-1.33,1.08-2.28h-0.67v-1.52h1.52v1.38
			C508.07,196.33,507.5,197.46,506.42,197.8z M509.59,197.8l-0.28-0.44c0.76-0.39,1.08-1.33,1.08-2.28h-0.67v-1.52h1.52v1.38
			C511.25,196.33,510.67,197.46,509.59,197.8z"/>
	</g>
	<g>
		<path class="st2" d="M453.29,232.39v-0.59h6.18v0.59H453.29z"/>
		<path class="st2" d="M469.36,235.37l-5.14-4.72v4.72h-0.88v-9.6h0.88v4.69l4.66-4.69h1.07l-4.72,4.74l5.31,4.87H469.36z"/>
		<path class="st2" d="M475.82,235.37l-0.05-0.99c-0.43,0.83-1.41,1.2-2.21,1.2c-1.55,0-2.72-1.25-2.72-2.95
			c0-1.7,1.17-2.93,2.72-2.93c0.78,0,1.78,0.35,2.21,1.2l0.05-0.99h0.7v5.46H475.82z M471.66,232.63c0,1.42,0.94,2.26,2.05,2.26
			c1.07,0,2.05-0.82,2.05-2.26c0-1.46-0.98-2.24-2.05-2.24C472.6,230.39,471.66,231.21,471.66,232.63z"/>
		<path class="st2" d="M482.77,235.37v-3.15c0-1.31-0.54-1.78-1.46-1.78c-0.94,0-1.92,0.91-1.92,1.87v3.06h-0.82v-5.46h0.72
			l0.05,1.02c0.38-0.69,1.28-1.23,2.19-1.23c1.39,0,2.05,0.9,2.05,2.42v3.25H482.77z"/>
		<path class="st2" d="M486.33,238.49h-0.82l1.34-3.19l-2.27-5.39h0.85l1.86,4.56l1.84-4.56h0.82L486.33,238.49z"/>
		<path class="st2" d="M495.6,232.41h-4.03c-0.1,1.14,0.43,2.47,2.24,2.47c0.66,0,1.3-0.29,1.78-0.67v0.67
			c-0.45,0.42-1.18,0.69-2.11,0.69c-1.6,0-2.74-1.28-2.74-2.98c0-1.78,1.28-2.88,2.63-2.88c1.33,0,2.3,0.9,2.3,2.13
			C495.66,232.01,495.63,232.22,495.6,232.41z M493.37,230.36c-0.8,0-1.55,0.46-1.76,1.46h3.25
			C494.94,230.98,494.35,230.36,493.37,230.36z"/>
	</g>
	<g>
		<g>
			<path class="st3" d="M84.63,471.04l7.99,10.77v-10.77h1.15v13.21h-0.84l-7.99-10.77v10.77h-1.14v-13.21H84.63z"/>
		</g>
		<g>
			<path class="st3" d="M102.97,480.18h-5.55c-0.13,1.56,0.59,3.39,3.08,3.39c0.9,0,1.78-0.4,2.44-0.92v0.92
				c-0.62,0.57-1.63,0.95-2.91,0.95c-2.2,0-3.77-1.76-3.77-4.1c0-2.44,1.76-3.96,3.61-3.96c1.83,0,3.17,1.23,3.17,2.93
				C103.06,479.62,103.02,479.91,102.97,480.18z M99.91,477.36c-1.1,0-2.14,0.64-2.42,2h4.47
				C102.07,478.22,101.25,477.36,99.91,477.36z"/>
		</g>
		<g>
			<path class="st3" d="M113.28,484.31h-0.84l-2.18-5.86l-2.22,5.86h-0.84l-2.88-7.57h1.12l2.22,5.94l2.18-5.94h0.84l2.25,5.94
				l2.16-5.94h1.08L113.28,484.31z"/>
		</g>
		<g>
			<path class="st3" d="M120.11,484.53c-1.34,0-2.4-0.59-2.69-0.77l0.22-0.92c0.57,0.33,1.48,0.75,2.51,0.75
				c1.01,0,1.72-0.4,1.72-1.34c0-0.7-0.57-1.03-1.92-1.39c-1.54-0.4-2.27-1.26-2.27-2.22c0-1.19,0.86-2.18,2.64-2.18
				c1.03,0,1.96,0.46,2.22,0.59l-0.22,0.9c-0.55-0.31-1.32-0.57-2-0.57c-1.12,0-1.59,0.46-1.59,1.15c0,0.7,0.55,1.03,1.63,1.32
				c1.67,0.4,2.58,1.21,2.58,2.25C122.95,483.61,121.8,484.53,120.11,484.53z"/>
		</g>
		<g>
			<path class="st3" d="M131.19,484.53c-1.34,0-2.4-0.59-2.69-0.77l0.22-0.92c0.57,0.33,1.48,0.75,2.51,0.75
				c1.01,0,1.72-0.4,1.72-1.34c0-0.7-0.57-1.03-1.92-1.39c-1.54-0.4-2.27-1.26-2.27-2.22c0-1.19,0.86-2.18,2.64-2.18
				c1.03,0,1.96,0.46,2.22,0.59l-0.22,0.9c-0.55-0.31-1.32-0.57-2-0.57c-1.12,0-1.59,0.46-1.59,1.15c0,0.7,0.55,1.03,1.63,1.32
				c1.67,0.4,2.58,1.21,2.58,2.25C134.03,483.61,132.88,484.53,131.19,484.53z"/>
		</g>
		<g>
			<path class="st3" d="M138.37,477.62v6.63h-1.12v-6.63h-1.65v-0.88h1.65v-2.53h1.12v2.53h1.65v0.88H138.37z"/>
		</g>
		<g>
			<path class="st3" d="M145.64,484.56c-2.36,0-4.07-1.85-4.07-4.07s1.72-4.05,4.07-4.05c2.38,0,4.07,1.83,4.07,4.05
				S148.01,484.56,145.64,484.56z M145.64,477.4c-1.67,0-2.95,1.25-2.95,3.08c0,1.81,1.28,3.1,2.95,3.1c1.7,0,2.95-1.3,2.95-3.1
				C148.59,478.66,147.33,477.4,145.64,477.4z"/>
		</g>
		<g>
			<path class="st3" d="M153.13,479.78v4.47H152v-7.51h0.99l0.07,1.37c0.55-0.86,1.74-1.65,2.93-1.65v1.23
				C154.6,477.47,153.13,478.46,153.13,479.78z"/>
		</g>
		<g>
			<path class="st3" d="M159.73,488.54h-1.12l1.85-4.38l-3.13-7.42h1.17l2.55,6.28l2.53-6.28h1.12L159.73,488.54z"/>
		</g>
		<g>
			<path class="st3" d="M169.75,472.36v-0.88l2.58-0.64v13.41h-1.17v-11.89H169.75z"/>
		</g>
	</g>
	<g>
		<rect x="74.7" y="279.37" class="st4" width="550.6" height="167.63"/>
		<line class="st4" x1="77.57" y1="278.5" x2="622.81" y2="446.24"/>
		<line class="st4" x1="77.57" y1="446.24" x2="622.81" y2="278.5"/>
	</g>
	<rect x="83" y="509" class="st5" width="238.01" height="365"/>
	<text transform="matrix(1 0 0 1 83 518.5996)"><tspan x="0" y="0" class="st3 st6 st7">Lorem ipsum dolor sit amet, consectetur </tspan><tspan x="0" y="19.2" class="st3 st6 st7">adipiscing elit, sed do eiusmod tempor </tspan><tspan x="0" y="38.4" class="st3 st6 st7">incididunt ut labore et dolore magna </tspan><tspan x="0" y="57.6" class="st3 st6 st7">aliqua. Tellus id interdum velit laoreet id </tspan><tspan x="0" y="76.8" class="st3 st6 st7">donec ultrices tincidunt arcu. Purus in </tspan><tspan x="0" y="96" class="st3 st6 st7">mollis nunc sed id semper risus. Eget est </tspan><tspan x="0" y="115.2" class="st3 st6 st7">lorem ipsum dolor sit amet. Nunc sceleris</tspan><tspan x="233.35" y="115.2" class="st3 st6 st7">-</tspan><tspan x="0" y="134.4" class="st3 st6 st7">que viverra mauris in. Mattis molestie a </tspan><tspan x="0" y="153.6" class="st3 st6 st7">iaculis at erat pellentesque adipiscing </tspan><tspan x="0" y="172.8" class="st3 st6 st7">commodo elit. Elementum eu facilisis sed </tspan><tspan x="0" y="192" class="st3 st6 st7">odio morbi quis. Mi proin sed libero enim. </tspan><tspan x="0" y="211.2" class="st3 st6 st7">Amet massa vitae tortor condimentum </tspan><tspan x="0" y="230.4" class="st3 st6 st7">lacinia quis. Lacus vestibulum sed arcu </tspan><tspan x="0" y="249.6" class="st3 st6 st7">non odio. Aliquam malesuada bibendum </tspan><tspan x="0" y="268.8" class="st3 st6 st7">arcu vitae. Erat pellentesque adipiscing </tspan><tspan x="0" y="288" class="st3 st6 st7">commodo elit. Fermentum odio eu feu</tspan><tspan x="218.2" y="288" class="st3 st6 st7">-</tspan><tspan x="0" y="307.2" class="st3 st6 st7">giat pretium nibh ipsum consequat nisl. </tspan><tspan x="0" y="326.4" class="st3 st6 st7">Morbi tempus iaculis urna id volutpat </tspan><tspan x="0" y="345.6" class="st3 st6 st7">lacus laoreet non. Velit egestas dui id </tspan></text>
	<rect x="382.99" y="509" class="st5" width="238.01" height="365"/>
	<text transform="matrix(1 0 0 1 382.9907 518.5996)"><tspan x="0" y="0" class="st3 st6 st7">ornare arcu odio. Sed odio morbi quis </tspan><tspan x="0" y="19.2" class="st3 st6 st7">commodo odio aenean sed. Vivamus </tspan><tspan x="0" y="38.4" class="st3 st6 st7">arcu felis bibendum ut tristique et eges</tspan><tspan x="219.48" y="38.4" class="st3 st6 st7">-</tspan><tspan x="0" y="57.6" class="st3 st6 st7">tas. Rhoncus aenean vel elit scelerisque </tspan><tspan x="0" y="76.8" class="st3 st6 st7">mauris pellentesque pulvinar.</tspan><tspan x="0" y="115.2" class="st3 st6 st7">Lacus vestibulum sed arcu non odio </tspan><tspan x="0" y="134.4" class="st3 st6 st7">euismod lacinia at. Eu turpis egestas </tspan><tspan x="0" y="153.6" class="st3 st6 st7">pretium aenean pharetra magna ac </tspan><tspan x="0" y="172.8" class="st3 st6 st7">placerat. Posuere urna nec tincidunt </tspan><tspan x="0" y="192" class="st3 st6 st7">praesent semper feugiat. Ut porttitor leo </tspan><tspan x="0" y="211.2" class="st3 st6 st7">a diam sollicitudin tempor id. Orci dapi</tspan><tspan x="223.38" y="211.2" class="st3 st6 st7">-</tspan><tspan x="0" y="230.4" class="st3 st6 st7">bus ultrices in iaculis nunc sed augue. </tspan><tspan x="0" y="249.6" class="st3 st6 st7">Pulvinar mattis nunc sed blandit libero </tspan><tspan x="0" y="268.8" class="st3 st6 st7">volutpat sed cras ornare. Habitant morbi </tspan><tspan x="0" y="288" class="st3 st6 st7">tristique senectus et netus. Gravida in </tspan><tspan x="0" y="307.2" class="st3 st6 st7">fermentum et sollicitudin ac orci. Metus </tspan><tspan x="0" y="326.4" class="st3 st6 st7">aliquam eleifend mi in nulla posuere </tspan><tspan x="0" y="345.6" class="st3 st6 st7">sollicitudin. Ullamcorper morbi tincidunt </tspan></text>
	<text transform="matrix(1 0 0 1 40.8604 57.3296)" class="st3 st6 st8">Expanded view</text>
</g>
<g id="Layer_2">
</g>
</svg>
